<mxfile host="app.diagrams.net" agent="Mozilla/5.0 (Windows NT 10.0; Win64; x64; rv:131.0) Gecko/20100101 Firefox/131.0" version="24.8.3">
  <diagram name="Page-1" id="iQ4HxxyHI3ju2iAP4ndW">
    <mxGraphModel dx="2074" dy="1148" grid="1" gridSize="10" guides="1" tooltips="1" connect="1" arrows="1" fold="1" page="1" pageScale="1" pageWidth="1654" pageHeight="1169" math="0" shadow="0">
      <root>
        <mxCell id="0" />
        <mxCell id="1" parent="0" />
        <mxCell id="dDypsuab_K0XSNRU1jJi-12" value="Non Routable Subnet" style="sketch=0;outlineConnect=0;gradientColor=none;html=1;whiteSpace=wrap;fontSize=12;fontStyle=0;shape=mxgraph.aws4.group;grIcon=mxgraph.aws4.group_subnet;strokeColor=#879196;fillColor=none;verticalAlign=top;align=left;spacingLeft=30;fontColor=#879196;dashed=0;" vertex="1" parent="1">
          <mxGeometry x="400" y="318" width="280" height="160" as="geometry" />
        </mxCell>
        <mxCell id="dDypsuab_K0XSNRU1jJi-1" value="Region" style="sketch=0;outlineConnect=0;gradientColor=none;html=1;whiteSpace=wrap;fontSize=12;fontStyle=0;shape=mxgraph.aws4.group;grIcon=mxgraph.aws4.group_region;strokeColor=#B6BABF;fillColor=none;verticalAlign=top;align=left;spacingLeft=30;fontColor=#B6BABF;dashed=1;" vertex="1" parent="1">
          <mxGeometry x="320" y="160" width="1040" height="600" as="geometry" />
        </mxCell>
        <mxCell id="dDypsuab_K0XSNRU1jJi-2" value="VPC1" style="points=[[0,0],[0.25,0],[0.5,0],[0.75,0],[1,0],[1,0.25],[1,0.5],[1,0.75],[1,1],[0.75,1],[0.5,1],[0.25,1],[0,1],[0,0.75],[0,0.5],[0,0.25]];outlineConnect=0;gradientColor=none;html=1;whiteSpace=wrap;fontSize=12;fontStyle=0;container=1;pointerEvents=0;collapsible=0;recursiveResize=0;shape=mxgraph.aws4.group;grIcon=mxgraph.aws4.group_vpc2;strokeColor=#8C4FFF;fillColor=none;verticalAlign=top;align=left;spacingLeft=30;fontColor=#AAB7B8;dashed=0;" vertex="1" parent="1">
          <mxGeometry x="360" y="200" width="370.79" height="520" as="geometry" />
        </mxCell>
        <mxCell id="dDypsuab_K0XSNRU1jJi-5" value="Attach1" style="sketch=0;outlineConnect=0;fontColor=#232F3E;gradientColor=none;fillColor=#8C4FFF;strokeColor=none;dashed=0;verticalLabelPosition=bottom;verticalAlign=top;align=center;html=1;fontSize=12;fontStyle=0;aspect=fixed;pointerEvents=1;shape=mxgraph.aws4.transit_gateway_attachment;" vertex="1" parent="dDypsuab_K0XSNRU1jJi-2">
          <mxGeometry x="280" y="180" width="29" height="29" as="geometry" />
        </mxCell>
        <mxCell id="dDypsuab_K0XSNRU1jJi-8" value="Routable Subnet" style="sketch=0;outlineConnect=0;gradientColor=none;html=1;whiteSpace=wrap;fontSize=12;fontStyle=0;shape=mxgraph.aws4.group;grIcon=mxgraph.aws4.group_subnet;strokeColor=#879196;fillColor=none;verticalAlign=top;align=left;spacingLeft=30;fontColor=#879196;dashed=0;" vertex="1" parent="dDypsuab_K0XSNRU1jJi-2">
          <mxGeometry x="40" y="320" width="280" height="160" as="geometry" />
        </mxCell>
        <mxCell id="dDypsuab_K0XSNRU1jJi-13" value="EC2" style="sketch=0;points=[[0,0,0],[0.25,0,0],[0.5,0,0],[0.75,0,0],[1,0,0],[0,1,0],[0.25,1,0],[0.5,1,0],[0.75,1,0],[1,1,0],[0,0.25,0],[0,0.5,0],[0,0.75,0],[1,0.25,0],[1,0.5,0],[1,0.75,0]];outlineConnect=0;fontColor=#232F3E;fillColor=#ED7100;strokeColor=#ffffff;dashed=0;verticalLabelPosition=bottom;verticalAlign=top;align=center;html=1;fontSize=12;fontStyle=0;aspect=fixed;shape=mxgraph.aws4.resourceIcon;resIcon=mxgraph.aws4.ec2;" vertex="1" parent="dDypsuab_K0XSNRU1jJi-2">
          <mxGeometry x="155.5" y="375.5" width="49" height="49" as="geometry" />
        </mxCell>
        <mxCell id="dDypsuab_K0XSNRU1jJi-31" value="VPC1 Route Table&#xa;10.20.0.0/16 via TGW&#xa;10.10.0.0/16 Local&#xa;100.64.0.0/16 Local" style="text;whiteSpace=wrap;fontStyle=1;fillColor=#e1d5e7;strokeColor=#9673a6;" vertex="1" parent="dDypsuab_K0XSNRU1jJi-2">
          <mxGeometry x="230" y="440" width="130" height="80" as="geometry" />
        </mxCell>
        <mxCell id="dDypsuab_K0XSNRU1jJi-29" value="" style="sketch=0;outlineConnect=0;fontColor=#232F3E;gradientColor=none;fillColor=#8C4FFF;strokeColor=none;dashed=0;verticalLabelPosition=bottom;verticalAlign=top;align=center;html=1;fontSize=12;fontStyle=0;aspect=fixed;pointerEvents=1;shape=mxgraph.aws4.route_table;movable=1;resizable=1;rotatable=1;deletable=1;editable=1;locked=0;connectable=1;" vertex="1" parent="dDypsuab_K0XSNRU1jJi-2">
          <mxGeometry x="340" y="424.5" width="30.79" height="30" as="geometry" />
        </mxCell>
        <mxCell id="dDypsuab_K0XSNRU1jJi-3" value="VPC2" style="points=[[0,0],[0.25,0],[0.5,0],[0.75,0],[1,0],[1,0.25],[1,0.5],[1,0.75],[1,1],[0.75,1],[0.5,1],[0.25,1],[0,1],[0,0.75],[0,0.5],[0,0.25]];outlineConnect=0;gradientColor=none;html=1;whiteSpace=wrap;fontSize=12;fontStyle=0;container=1;pointerEvents=0;collapsible=0;recursiveResize=0;shape=mxgraph.aws4.group;grIcon=mxgraph.aws4.group_vpc2;strokeColor=#8C4FFF;fillColor=none;verticalAlign=top;align=left;spacingLeft=30;fontColor=#AAB7B8;dashed=0;" vertex="1" parent="1">
          <mxGeometry x="960" y="200" width="360" height="520" as="geometry" />
        </mxCell>
        <mxCell id="dDypsuab_K0XSNRU1jJi-24" value="Non Routable Subnet" style="sketch=0;outlineConnect=0;gradientColor=none;html=1;whiteSpace=wrap;fontSize=12;fontStyle=0;shape=mxgraph.aws4.group;grIcon=mxgraph.aws4.group_subnet;strokeColor=#879196;fillColor=none;verticalAlign=top;align=left;spacingLeft=30;fontColor=#879196;dashed=0;" vertex="1" parent="dDypsuab_K0XSNRU1jJi-3">
          <mxGeometry x="40" y="118" width="280" height="160" as="geometry" />
        </mxCell>
        <mxCell id="dDypsuab_K0XSNRU1jJi-21" value="Attach2" style="sketch=0;outlineConnect=0;fontColor=#232F3E;gradientColor=none;fillColor=#8C4FFF;strokeColor=none;dashed=0;verticalLabelPosition=bottom;verticalAlign=top;align=center;html=1;fontSize=12;fontStyle=0;aspect=fixed;pointerEvents=1;shape=mxgraph.aws4.transit_gateway_attachment;" vertex="1" parent="dDypsuab_K0XSNRU1jJi-3">
          <mxGeometry x="47" y="180" width="29" height="29" as="geometry" />
        </mxCell>
        <mxCell id="dDypsuab_K0XSNRU1jJi-22" value="Routable Subnet" style="sketch=0;outlineConnect=0;gradientColor=none;html=1;whiteSpace=wrap;fontSize=12;fontStyle=0;shape=mxgraph.aws4.group;grIcon=mxgraph.aws4.group_subnet;strokeColor=#879196;fillColor=none;verticalAlign=top;align=left;spacingLeft=30;fontColor=#879196;dashed=0;" vertex="1" parent="dDypsuab_K0XSNRU1jJi-3">
          <mxGeometry x="40" y="320" width="280" height="160" as="geometry" />
        </mxCell>
        <mxCell id="dDypsuab_K0XSNRU1jJi-23" value="EC2" style="sketch=0;points=[[0,0,0],[0.25,0,0],[0.5,0,0],[0.75,0,0],[1,0,0],[0,1,0],[0.25,1,0],[0.5,1,0],[0.75,1,0],[1,1,0],[0,0.25,0],[0,0.5,0],[0,0.75,0],[1,0.25,0],[1,0.5,0],[1,0.75,0]];outlineConnect=0;fontColor=#232F3E;fillColor=#ED7100;strokeColor=#ffffff;dashed=0;verticalLabelPosition=bottom;verticalAlign=top;align=center;html=1;fontSize=12;fontStyle=0;aspect=fixed;shape=mxgraph.aws4.resourceIcon;resIcon=mxgraph.aws4.ec2;" vertex="1" parent="dDypsuab_K0XSNRU1jJi-3">
          <mxGeometry x="155.5" y="375.5" width="49" height="49" as="geometry" />
        </mxCell>
        <mxCell id="dDypsuab_K0XSNRU1jJi-32" value="VPC2 Route Table&#xa;10.10.0.0/16 via TGW&#xa;10.20.0.0/16 Local&#xa;100.64.0.0/16 Local" style="text;whiteSpace=wrap;fontStyle=1;fillColor=#e1d5e7;strokeColor=#9673a6;" vertex="1" parent="dDypsuab_K0XSNRU1jJi-3">
          <mxGeometry y="440" width="130" height="80" as="geometry" />
        </mxCell>
        <mxCell id="dDypsuab_K0XSNRU1jJi-36" value="" style="sketch=0;outlineConnect=0;fontColor=#232F3E;gradientColor=none;fillColor=#8C4FFF;strokeColor=none;dashed=0;verticalLabelPosition=bottom;verticalAlign=top;align=center;html=1;fontSize=12;fontStyle=0;aspect=fixed;pointerEvents=1;shape=mxgraph.aws4.route_table;movable=1;resizable=1;rotatable=1;deletable=1;editable=1;locked=0;connectable=1;" vertex="1" parent="dDypsuab_K0XSNRU1jJi-3">
          <mxGeometry x="110" y="424.5" width="30.79" height="30" as="geometry" />
        </mxCell>
        <mxCell id="dDypsuab_K0XSNRU1jJi-27" style="edgeStyle=orthogonalEdgeStyle;rounded=0;orthogonalLoop=1;jettySize=auto;html=1;" edge="1" parent="1" source="dDypsuab_K0XSNRU1jJi-4" target="dDypsuab_K0XSNRU1jJi-5">
          <mxGeometry relative="1" as="geometry" />
        </mxCell>
        <mxCell id="dDypsuab_K0XSNRU1jJi-28" style="edgeStyle=orthogonalEdgeStyle;rounded=0;orthogonalLoop=1;jettySize=auto;html=1;" edge="1" parent="1" source="dDypsuab_K0XSNRU1jJi-4" target="dDypsuab_K0XSNRU1jJi-21">
          <mxGeometry relative="1" as="geometry" />
        </mxCell>
        <mxCell id="dDypsuab_K0XSNRU1jJi-4" value="TGW" style="sketch=0;points=[[0,0,0],[0.25,0,0],[0.5,0,0],[0.75,0,0],[1,0,0],[0,1,0],[0.25,1,0],[0.5,1,0],[0.75,1,0],[1,1,0],[0,0.25,0],[0,0.5,0],[0,0.75,0],[1,0.25,0],[1,0.5,0],[1,0.75,0]];outlineConnect=0;fontColor=#232F3E;fillColor=#8C4FFF;strokeColor=#ffffff;dashed=0;verticalLabelPosition=bottom;verticalAlign=top;align=center;html=1;fontSize=12;fontStyle=1;aspect=fixed;shape=mxgraph.aws4.resourceIcon;resIcon=mxgraph.aws4.transit_gateway;" vertex="1" parent="1">
          <mxGeometry x="800" y="400" width="78" height="78" as="geometry" />
        </mxCell>
        <mxCell id="dDypsuab_K0XSNRU1jJi-17" value="Primary CIDR : 100.64.0.0/16&#xa;Secondary CIDR : 10.10.0.0/16&#xa;" style="text;whiteSpace=wrap;" vertex="1" parent="1">
          <mxGeometry x="540" y="200" width="230" height="40" as="geometry" />
        </mxCell>
        <mxCell id="dDypsuab_K0XSNRU1jJi-18" value="Primary CIDR : 100.64.0.0/16&#xa;Secondary CIDR : 10.20.0.0/16&#xa;" style="text;whiteSpace=wrap;" vertex="1" parent="1">
          <mxGeometry x="1140" y="200" width="230" height="40" as="geometry" />
        </mxCell>
        <mxCell id="dDypsuab_K0XSNRU1jJi-19" value="100.64.0.0/24&#xa;" style="text;whiteSpace=wrap;" vertex="1" parent="1">
          <mxGeometry x="597" y="318" width="230" height="40" as="geometry" />
        </mxCell>
        <mxCell id="dDypsuab_K0XSNRU1jJi-20" value="10.10.0.0/24&#xa;" style="text;whiteSpace=wrap;" vertex="1" parent="1">
          <mxGeometry x="597" y="520" width="230" height="40" as="geometry" />
        </mxCell>
        <mxCell id="dDypsuab_K0XSNRU1jJi-25" value="100.64.0.0/24&#xa;" style="text;whiteSpace=wrap;" vertex="1" parent="1">
          <mxGeometry x="1200" y="318" width="230" height="40" as="geometry" />
        </mxCell>
        <mxCell id="dDypsuab_K0XSNRU1jJi-26" value="10.20.0.0/24&#xa;" style="text;whiteSpace=wrap;" vertex="1" parent="1">
          <mxGeometry x="1200" y="520" width="230" height="40" as="geometry" />
        </mxCell>
        <mxCell id="dDypsuab_K0XSNRU1jJi-34" style="edgeStyle=orthogonalEdgeStyle;rounded=0;orthogonalLoop=1;jettySize=auto;html=1;" edge="1" parent="1" source="dDypsuab_K0XSNRU1jJi-33" target="dDypsuab_K0XSNRU1jJi-4">
          <mxGeometry relative="1" as="geometry" />
        </mxCell>
        <mxCell id="dDypsuab_K0XSNRU1jJi-33" value="TGW Route Table&#xa;10.10.0.0/16 via Attach1&#xa;10.20.0.0/16 via Attach2" style="text;whiteSpace=wrap;fontStyle=1;fillColor=#dae8fc;strokeColor=#6c8ebf;" vertex="1" parent="1">
          <mxGeometry x="766" y="298" width="146" height="60" as="geometry" />
        </mxCell>
        <mxCell id="dDypsuab_K0XSNRU1jJi-37" value="" style="sketch=0;outlineConnect=0;fontColor=#232F3E;gradientColor=none;fillColor=#8C4FFF;strokeColor=none;dashed=0;verticalLabelPosition=bottom;verticalAlign=top;align=center;html=1;fontSize=12;fontStyle=0;aspect=fixed;pointerEvents=1;shape=mxgraph.aws4.route_table;movable=1;resizable=1;rotatable=1;deletable=1;editable=1;locked=0;connectable=1;" vertex="1" parent="1">
          <mxGeometry x="890" y="280" width="30.79" height="30" as="geometry" />
        </mxCell>
      </root>
    </mxGraphModel>
  </diagram>
</mxfile>
